<svg xmlns="http://www.w3.org/2000/svg" width="39" height="37" viewBox="0 0 39 37"><g><g><g><path fill="#473bf0" d="M.857 6h4.286C5.616 6 6 5.552 6 5s-.384-1-.857-1H.857C.384 4 0 4.448 0 5s.384 1 .857 1z"/></g><g><path fill="#473bf0" d="M13.319 11c2.59-.003 4.802-1.939 5.233-4.583h19.562c.49 0 .886-.41.886-.917 0-.506-.396-.916-.886-.916H18.552c-.47-2.879-3.03-4.875-5.832-4.55-2.803.327-4.87 2.862-4.711 5.777.159 2.914 2.49 5.192 5.31 5.189z"/></g><g opacity=".7"><path fill="#473bf0" d="M38.143 17h-4.286c-.473 0-.857.448-.857 1s.384 1 .857 1h4.286c.473 0 .857-.448.857-1s-.384-1-.857-1z"/></g><g opacity=".7"><path fill="#473bf0" d="M.886 19.417h19.562c.46 2.819 2.93 4.803 5.683 4.563C28.884 23.741 31 21.36 31 18.5c0-2.86-2.116-5.241-4.869-5.48-2.753-.24-5.223 1.744-5.683 4.563H.886c-.49 0-.886.41-.886.917 0 .506.396.917.886.917z"/></g><g opacity=".3"><path fill="#473bf0" d="M5.143 31H.857C.384 31 0 31.448 0 32s.384 1 .857 1h4.286c.473 0 .857-.448.857-1s-.384-1-.857-1z"/></g><g opacity=".3"><path fill="#473bf0" d="M38.114 30.583H18.552c-.46-2.819-2.93-4.803-5.683-4.563C10.116 26.259 8 28.64 8 31.5c0 2.86 2.116 5.241 4.869 5.48 2.753.24 5.223-1.744 5.683-4.563h19.562c.49 0 .886-.41.886-.917 0-.506-.396-.917-.886-.917z"/></g></g></g></svg>