<svg xmlns="http://www.w3.org/2000/svg" width="37" height="37" viewBox="0 0 37 37"><g><g><g opacity=".4"><path fill="#473bf0" d="M11.101 29.6a3.683 3.683 0 0 0-3.681 3.7c0 2.044 1.637 3.7 3.682 3.7 2.044 0 3.7-1.656 3.7-3.7 0-2.044-1.656-3.7-3.7-3.7z"/></g><g><path fill="#473bf0" d="M0 0v3.7h3.7l6.65 14.032-2.497 4.533A3.761 3.761 0 0 0 7.4 24.05c0 2.044 1.656 3.7 3.7 3.7h22.2v-3.7H11.886a.458.458 0 0 1-.462-.463.44.44 0 0 1 .055-.221l1.656-3.016h13.782c1.388 0 2.6-.768 3.238-1.905l6.614-12.007c.148-.259.231-.564.231-.888a1.85 1.85 0 0 0-1.85-1.85H7.798L6.04 0z"/></g><g opacity=".4"><path fill="#473bf0" d="M29.602 29.6a3.683 3.683 0 0 0-3.682 3.7c0 2.044 1.637 3.7 3.682 3.7 2.044 0 3.7-1.656 3.7-3.7 0-2.044-1.656-3.7-3.7-3.7z"/></g></g></g></svg>