<svg xmlns="http://www.w3.org/2000/svg" width="34" height="34" viewBox="0 0 34 34"><g><g><path fill="#416ff4" d="M22.518 4.556c-.923.62-2.412 1.626-2.899 2.293-.225.308-.544 1.887-1.58 2.017-.274.035-.637.01-1.024-.015-1.036-.067-2.452-.158-2.905 1.074-.289.781-.34 2.899.593 4 .148.176.178.5.075.866-.132.478-.4.77-.483.83-.162-.093-.484-.465-.7-.717-.522-.608-1.175-1.367-2.018-1.6-.306-.085-.643-.155-.971-.225-.915-.19-1.951-.41-2.191-.924-.175-.375-.175-.895-.175-1.442 0-.695 0-1.48-.34-2.242a2.106 2.106 0 0 0-.728-.89 13.567 13.567 0 0 1 9.823-4.195 13.551 13.551 0 0 1 5.523 1.17zm5.069 19.03c0 .939-.134 1.715-.317 2.338a13.632 13.632 0 0 1-5.248 3.726c.33-1.362-.15-2.74-.336-3.195-.383-.932-1.646-2.527-3.753-4.737-.563-.592-.526-1.045-.325-2.394l.022-.152c.137-.922.366-1.469 3.473-1.962 1.579-.25 1.993.38 2.568 1.254.063.096.128.192.193.287.546.8.951.981 1.562 1.26.367.162.726.343 1.075.54 1.086.622 1.086 1.323 1.086 2.86zm6.076-6.59C33.663 7.793 26.202.33 16.997.33S.33 7.792.33 16.997c0 9.205 7.462 16.666 16.667 16.666 9.205 0 16.666-7.461 16.666-16.666z"/></g></g></svg>