<svg xmlns="http://www.w3.org/2000/svg" width="38" height="29" viewBox="0 0 38 29"><g><g><path fill="#473bf0" d="M23.957 22.467c-1.823 0-3.305-1.494-3.305-3.332 0-1.838 1.482-3.332 3.305-3.332 1.822 0 3.304 1.494 3.304 3.332 0 1.838-1.482 3.332-3.304 3.332zm-9.914-2.505a.82.82 0 0 1-.584-.244.835.835 0 0 1 0-1.176l9.905-9.98a.82.82 0 0 1 1.167 0 .835.835 0 0 1 0 1.175l-9.905 9.981a.82.82 0 0 1-.583.244zM10.739 9.154c0-1.837 1.482-3.332 3.304-3.332 1.823 0 3.305 1.495 3.305 3.332 0 1.838-1.482 3.332-3.305 3.332-1.822 0-3.304-1.494-3.304-3.332zm26.435.827A.83.83 0 0 0 38 9.149V.832A.83.83 0 0 0 37.174 0H.826A.83.83 0 0 0 0 .832v8.317c0 .46.37.832.826.832 2.355 0 4.13 1.787 4.13 4.159 0 2.37-1.775 4.158-4.13 4.158A.83.83 0 0 0 0 19.13v8.317c0 .46.37.832.826.832h36.348a.83.83 0 0 0 .826-.832V19.13a.83.83 0 0 0-.826-.832c-2.355 0-4.13-1.787-4.13-4.158 0-2.372 1.775-4.16 4.13-4.16z"/></g></g></svg>